<svg xmlns="http://www.w3.org/2000/svg" viewBox="0 0 100 100" fill="black">
  <!-- Claw / pincer shape representing OpenClaw -->
  <!-- Body -->
  <ellipse cx="50" cy="58" rx="18" ry="24"/>
  <!-- Left claw arm -->
  <path d="M32 50 Q18 42 14 30 Q10 18 18 14 Q26 10 30 20 Q32 28 30 36 Z"/>
  <!-- Left claw pincer top -->
  <path d="M14 30 Q8 22 12 16 Q16 10 20 16 Q18 22 18 28 Z"/>
  <!-- Right claw arm -->
  <path d="M68 50 Q82 42 86 30 Q90 18 82 14 Q74 10 70 20 Q68 28 70 36 Z"/>
  <!-- Right claw pincer top -->
  <path d="M86 30 Q92 22 88 16 Q84 10 80 16 Q82 22 82 28 Z"/>
  <!-- Antennae left -->
  <line x1="40" y1="35" x2="28" y2="12" stroke="black" stroke-width="4" stroke-linecap="round"/>
  <!-- Antennae right -->
  <line x1="60" y1="35" x2="72" y2="12" stroke="black" stroke-width="4" stroke-linecap="round"/>
  <!-- Eyes -->
  <circle cx="43" cy="40" r="4"/>
  <circle cx="57" cy="40" r="4"/>
</svg>
